<svg xmlns="http://www.w3.org/2000/svg" xmlns:xlink="http://www.w3.org/1999/xlink" width="30.521" height="30.049" viewBox="0 0 30.521 30.049"><defs><linearGradient id="a" x1="0.5" x2="0.5" y2="1" gradientUnits="objectBoundingBox"><stop offset="0" stop-color="#9f7533"/><stop offset="0.205" stop-color="#c2aa6c"/><stop offset="0.452" stop-color="#edeab0"/><stop offset="0.766" stop-color="#ead996"/><stop offset="1" stop-color="#e3c274"/></linearGradient></defs><g transform="translate(1.119 1.036)"><path d="M446.778,1983.675l6.288,6.288a5.34,5.34,0,0,1,6.378,0l15.676-15.676s-2.6-3.623,0-6.221l-6.1-6.1a5,5,0,0,1-6.276,0l-15.894,15.893S450.079,1981,446.778,1983.675Z" transform="translate(-446.778 -1961.966)" fill="none" stroke="#c7aa77" stroke-miterlimit="10" stroke-width="1.5"/><path d="M449.233,1977.137s.869,3.134,0,4.962l3.39,3.394a9.341,9.341,0,0,1,4.884,0l12.993-13.007s-1-2.87,0-4.871l-3.349-3.353a9.375,9.375,0,0,1-5.092,0Z" transform="translate(-445.462 -1960.736)" fill="url(#a)"/></g></svg>